<svg width="671" height="381" viewBox="0 0 671 381" fill="none" xmlns="http://www.w3.org/2000/svg">
<path d="M211.3 173C214.4 173 217.083 173.517 219.35 174.55C221.65 175.583 223.417 177.05 224.65 178.95C225.883 180.85 226.5 183.1 226.5 185.7C226.5 188.267 225.883 190.517 224.65 192.45C223.417 194.35 221.65 195.817 219.35 196.85C217.083 197.85 214.4 198.35 211.3 198.35H204.25V208H196.15V173H211.3ZM210.85 191.75C213.283 191.75 215.133 191.233 216.4 190.2C217.667 189.133 218.3 187.633 218.3 185.7C218.3 183.733 217.667 182.233 216.4 181.2C215.133 180.133 213.283 179.6 210.85 179.6H204.25V191.75H210.85ZM248.571 180.7C251.904 180.7 254.588 181.7 256.621 183.7C258.688 185.7 259.721 188.667 259.721 192.6V208H251.921V193.8C251.921 191.667 251.454 190.083 250.521 189.05C249.588 187.983 248.238 187.45 246.471 187.45C244.504 187.45 242.938 188.067 241.771 189.3C240.604 190.5 240.021 192.3 240.021 194.7V208H232.221V170.9H240.021V183.9C241.054 182.867 242.304 182.083 243.771 181.55C245.238 180.983 246.838 180.7 248.571 180.7ZM293.434 194.65C293.434 194.75 293.384 195.45 293.284 196.75H272.934C273.301 198.417 274.168 199.733 275.534 200.7C276.901 201.667 278.601 202.15 280.634 202.15C282.034 202.15 283.268 201.95 284.334 201.55C285.434 201.117 286.451 200.45 287.384 199.55L291.534 204.05C289.001 206.95 285.301 208.4 280.434 208.4C277.401 208.4 274.718 207.817 272.384 206.65C270.051 205.45 268.251 203.8 266.984 201.7C265.718 199.6 265.084 197.217 265.084 194.55C265.084 191.917 265.701 189.55 266.934 187.45C268.201 185.317 269.918 183.667 272.084 182.5C274.284 181.3 276.734 180.7 279.434 180.7C282.068 180.7 284.451 181.267 286.584 182.4C288.718 183.533 290.384 185.167 291.584 187.3C292.818 189.4 293.434 191.85 293.434 194.65ZM279.484 186.6C277.718 186.6 276.234 187.1 275.034 188.1C273.834 189.1 273.101 190.467 272.834 192.2H286.084C285.818 190.5 285.084 189.15 283.884 188.15C282.684 187.117 281.218 186.6 279.484 186.6ZM314.977 180.7C318.311 180.7 320.994 181.7 323.027 183.7C325.094 185.7 326.127 188.667 326.127 192.6V208H318.327V193.8C318.327 191.667 317.861 190.083 316.927 189.05C315.994 187.983 314.644 187.45 312.877 187.45C310.911 187.45 309.344 188.067 308.177 189.3C307.011 190.5 306.427 192.3 306.427 194.7V208H298.627V181.1H306.077V184.25C307.111 183.117 308.394 182.25 309.927 181.65C311.461 181.017 313.144 180.7 314.977 180.7ZM346.291 208.4C343.457 208.4 340.907 207.817 338.641 206.65C336.407 205.45 334.657 203.8 333.391 201.7C332.124 199.6 331.491 197.217 331.491 194.55C331.491 191.883 332.124 189.5 333.391 187.4C334.657 185.3 336.407 183.667 338.641 182.5C340.907 181.3 343.457 180.7 346.291 180.7C349.124 180.7 351.657 181.3 353.891 182.5C356.124 183.667 357.874 185.3 359.141 187.4C360.407 189.5 361.041 191.883 361.041 194.55C361.041 197.217 360.407 199.6 359.141 201.7C357.874 203.8 356.124 205.45 353.891 206.65C351.657 207.817 349.124 208.4 346.291 208.4ZM346.291 202C348.291 202 349.924 201.333 351.191 200C352.491 198.633 353.141 196.817 353.141 194.55C353.141 192.283 352.491 190.483 351.191 189.15C349.924 187.783 348.291 187.1 346.291 187.1C344.291 187.1 342.641 187.783 341.341 189.15C340.041 190.483 339.391 192.283 339.391 194.55C339.391 196.817 340.041 198.633 341.341 200C342.641 201.333 344.291 202 346.291 202ZM390.454 189.95H397.854V204.15C395.954 205.583 393.754 206.683 391.254 207.45C388.754 208.217 386.238 208.6 383.704 208.6C380.071 208.6 376.804 207.833 373.904 206.3C371.004 204.733 368.721 202.583 367.054 199.85C365.421 197.083 364.604 193.967 364.604 190.5C364.604 187.033 365.421 183.933 367.054 181.2C368.721 178.433 371.021 176.283 373.954 174.75C376.888 173.183 380.188 172.4 383.854 172.4C386.921 172.4 389.704 172.917 392.204 173.95C394.704 174.983 396.804 176.483 398.504 178.45L393.304 183.25C390.804 180.617 387.788 179.3 384.254 179.3C382.021 179.3 380.038 179.767 378.304 180.7C376.571 181.633 375.221 182.95 374.254 184.65C373.288 186.35 372.804 188.3 372.804 190.5C372.804 192.667 373.288 194.6 374.254 196.3C375.221 198 376.554 199.333 378.254 200.3C379.988 201.233 381.954 201.7 384.154 201.7C386.488 201.7 388.588 201.2 390.454 200.2V189.95ZM412.279 184.65C413.212 183.35 414.462 182.367 416.029 181.7C417.629 181.033 419.462 180.7 421.529 180.7V187.9C420.662 187.833 420.079 187.8 419.779 187.8C417.545 187.8 415.795 188.433 414.529 189.7C413.262 190.933 412.629 192.8 412.629 195.3V208H404.829V181.1H412.279V184.65ZM438.722 208.4C435.889 208.4 433.339 207.817 431.072 206.65C428.839 205.45 427.089 203.8 425.822 201.7C424.556 199.6 423.922 197.217 423.922 194.55C423.922 191.883 424.556 189.5 425.822 187.4C427.089 185.3 428.839 183.667 431.072 182.5C433.339 181.3 435.889 180.7 438.722 180.7C441.556 180.7 444.089 181.3 446.322 182.5C448.556 183.667 450.306 185.3 451.572 187.4C452.839 189.5 453.472 191.883 453.472 194.55C453.472 197.217 452.839 199.6 451.572 201.7C450.306 203.8 448.556 205.45 446.322 206.65C444.089 207.817 441.556 208.4 438.722 208.4ZM438.722 202C440.722 202 442.356 201.333 443.622 200C444.922 198.633 445.572 196.817 445.572 194.55C445.572 192.283 444.922 190.483 443.622 189.15C442.356 187.783 440.722 187.1 438.722 187.1C436.722 187.1 435.072 187.783 433.772 189.15C432.472 190.483 431.822 192.283 431.822 194.55C431.822 196.817 432.472 198.633 433.772 200C435.072 201.333 436.722 202 438.722 202ZM485.786 181.1V208H478.386V204.8C477.353 205.967 476.119 206.867 474.686 207.5C473.253 208.1 471.703 208.4 470.036 208.4C466.503 208.4 463.703 207.383 461.636 205.35C459.569 203.317 458.536 200.3 458.536 196.3V181.1H466.336V195.15C466.336 199.483 468.153 201.65 471.786 201.65C473.653 201.65 475.153 201.05 476.286 199.85C477.419 198.617 477.986 196.8 477.986 194.4V181.1H485.786ZM508.912 180.7C511.412 180.7 513.679 181.283 515.712 182.45C517.779 183.583 519.395 185.2 520.562 187.3C521.729 189.367 522.312 191.783 522.312 194.55C522.312 197.317 521.729 199.75 520.562 201.85C519.395 203.917 517.779 205.533 515.712 206.7C513.679 207.833 511.412 208.4 508.912 208.4C505.479 208.4 502.779 207.317 500.812 205.15V217.7H493.012V181.1H500.462V184.2C502.395 181.867 505.212 180.7 508.912 180.7ZM507.562 202C509.562 202 511.195 201.333 512.462 200C513.762 198.633 514.412 196.817 514.412 194.55C514.412 192.283 513.762 190.483 512.462 189.15C511.195 187.783 509.562 187.1 507.562 187.1C505.562 187.1 503.912 187.783 502.612 189.15C501.345 190.483 500.712 192.283 500.712 194.55C500.712 196.817 501.345 198.633 502.612 200C503.912 201.333 505.562 202 507.562 202Z" fill="black"/>
<path d="M205.82 237.36C202.82 237.36 200.48 236.53 198.8 234.87C197.14 233.21 196.31 230.84 196.31 227.76V216H201.17V227.58C201.17 231.34 202.73 233.22 205.85 233.22C207.37 233.22 208.53 232.77 209.33 231.87C210.13 230.95 210.53 229.52 210.53 227.58V216H215.33V227.76C215.33 230.84 214.49 233.21 212.81 234.87C211.15 236.53 208.82 237.36 205.82 237.36ZM229.613 220.62C231.613 220.62 233.223 221.22 234.443 222.42C235.683 223.62 236.303 225.4 236.303 227.76V237H231.623V228.48C231.623 227.2 231.343 226.25 230.783 225.63C230.223 224.99 229.413 224.67 228.353 224.67C227.173 224.67 226.233 225.04 225.533 225.78C224.833 226.5 224.483 227.58 224.483 229.02V237H219.803V220.86H224.273V222.75C224.893 222.07 225.663 221.55 226.583 221.19C227.503 220.81 228.513 220.62 229.613 220.62ZM240.545 220.86H245.225V237H240.545V220.86ZM242.885 218.61C242.025 218.61 241.325 218.36 240.785 217.86C240.245 217.36 239.975 216.74 239.975 216C239.975 215.26 240.245 214.64 240.785 214.14C241.325 213.64 242.025 213.39 242.885 213.39C243.745 213.39 244.445 213.63 244.985 214.11C245.525 214.59 245.795 215.19 245.795 215.91C245.795 216.69 245.525 217.34 244.985 217.86C244.445 218.36 243.745 218.61 242.885 218.61ZM256.078 220.62C258.578 220.62 260.498 221.22 261.838 222.42C263.178 223.6 263.848 225.39 263.848 227.79V237H259.468V234.99C258.588 236.49 256.948 237.24 254.548 237.24C253.308 237.24 252.228 237.03 251.308 236.61C250.408 236.19 249.718 235.61 249.238 234.87C248.758 234.13 248.518 233.29 248.518 232.35C248.518 230.85 249.078 229.67 250.198 228.81C251.338 227.95 253.088 227.52 255.448 227.52H259.168C259.168 226.5 258.858 225.72 258.238 225.18C257.618 224.62 256.688 224.34 255.448 224.34C254.588 224.34 253.738 224.48 252.898 224.76C252.078 225.02 251.378 225.38 250.798 225.84L249.118 222.57C249.998 221.95 251.048 221.47 252.268 221.13C253.508 220.79 254.778 220.62 256.078 220.62ZM255.718 234.09C256.518 234.09 257.228 233.91 257.848 233.55C258.468 233.17 258.908 232.62 259.168 231.9V230.25H255.958C254.038 230.25 253.078 230.88 253.078 232.14C253.078 232.74 253.308 233.22 253.768 233.58C254.248 233.92 254.898 234.09 255.718 234.09ZM277.894 220.62C279.894 220.62 281.504 221.22 282.724 222.42C283.964 223.62 284.584 225.4 284.584 227.76V237H279.904V228.48C279.904 227.2 279.624 226.25 279.064 225.63C278.504 224.99 277.694 224.67 276.634 224.67C275.454 224.67 274.514 225.04 273.814 225.78C273.114 226.5 272.764 227.58 272.764 229.02V237H268.084V220.86H272.554V222.75C273.174 222.07 273.944 221.55 274.864 221.19C275.784 220.81 276.794 220.62 277.894 220.62ZM305.442 214.74V237H300.972V235.14C299.812 236.54 298.132 237.24 295.932 237.24C294.412 237.24 293.032 236.9 291.792 236.22C290.572 235.54 289.612 234.57 288.912 233.31C288.212 232.05 287.862 230.59 287.862 228.93C287.862 227.27 288.212 225.81 288.912 224.55C289.612 223.29 290.572 222.32 291.792 221.64C293.032 220.96 294.412 220.62 295.932 220.62C297.992 220.62 299.602 221.27 300.762 222.57V214.74H305.442ZM296.742 233.4C297.922 233.4 298.902 233 299.682 232.2C300.462 231.38 300.852 230.29 300.852 228.93C300.852 227.57 300.462 226.49 299.682 225.69C298.902 224.87 297.922 224.46 296.742 224.46C295.542 224.46 294.552 224.87 293.772 225.69C292.992 226.49 292.602 227.57 292.602 228.93C292.602 230.29 292.992 231.38 293.772 232.2C294.552 233 295.542 233.4 296.742 233.4ZM325.583 228.99C325.583 229.05 325.553 229.47 325.493 230.25H313.283C313.503 231.25 314.023 232.04 314.843 232.62C315.663 233.2 316.683 233.49 317.903 233.49C318.743 233.49 319.483 233.37 320.123 233.13C320.783 232.87 321.393 232.47 321.953 231.93L324.443 234.63C322.923 236.37 320.703 237.24 317.783 237.24C315.963 237.24 314.353 236.89 312.953 236.19C311.553 235.47 310.473 234.48 309.713 233.22C308.953 231.96 308.573 230.53 308.573 228.93C308.573 227.35 308.943 225.93 309.683 224.67C310.443 223.39 311.473 222.4 312.773 221.7C314.093 220.98 315.563 220.62 317.183 220.62C318.763 220.62 320.193 220.96 321.473 221.64C322.753 222.32 323.753 223.3 324.473 224.58C325.213 225.84 325.583 227.31 325.583 228.99ZM317.213 224.16C316.153 224.16 315.263 224.46 314.543 225.06C313.823 225.66 313.383 226.48 313.223 227.52H321.173C321.013 226.5 320.573 225.69 319.853 225.09C319.133 224.47 318.253 224.16 317.213 224.16ZM334.129 237.24C332.789 237.24 331.479 237.08 330.199 236.76C328.919 236.42 327.899 236 327.139 235.5L328.699 232.14C329.419 232.6 330.289 232.98 331.309 233.28C332.329 233.56 333.329 233.7 334.309 233.7C336.289 233.7 337.279 233.21 337.279 232.23C337.279 231.77 337.009 231.44 336.469 231.24C335.929 231.04 335.099 230.87 333.979 230.73C332.659 230.53 331.569 230.3 330.709 230.04C329.849 229.78 329.099 229.32 328.459 228.66C327.839 228 327.529 227.06 327.529 225.84C327.529 224.82 327.819 223.92 328.399 223.14C328.999 222.34 329.859 221.72 330.979 221.28C332.119 220.84 333.459 220.62 334.999 220.62C336.139 220.62 337.269 220.75 338.389 221.01C339.529 221.25 340.469 221.59 341.209 222.03L339.649 225.36C338.229 224.56 336.679 224.16 334.999 224.16C333.999 224.16 333.249 224.3 332.749 224.58C332.249 224.86 331.999 225.22 331.999 225.66C331.999 226.16 332.269 226.51 332.809 226.71C333.349 226.91 334.209 227.1 335.389 227.28C336.709 227.5 337.789 227.74 338.629 228C339.469 228.24 340.199 228.69 340.819 229.35C341.439 230.01 341.749 230.93 341.749 232.11C341.749 233.11 341.449 234 340.849 234.78C340.249 235.56 339.369 236.17 338.209 236.61C337.069 237.03 335.709 237.24 334.129 237.24Z" fill="black"/>
<path d="M189.254 171.722L98.6318 151.266L105.075 132.418L189.254 171.722Z" fill="#E8D20B"/>
<path d="M187.119 170.978L167.032 235.811L149.077 227.188L187.119 170.978Z" fill="black"/>
<path d="M188.642 171.198L176.711 87.9755L196.624 87.5043L188.642 171.198Z" fill="black"/>
<path d="M188.237 171.55L134.041 123.177L145.51 114.643L188.237 171.55Z" fill="black"/>
<path d="M188.369 174L137.346 103.312L152.866 96.091L188.369 174Z" fill="#E8D20B"/>
<path d="M186.045 174.491L222.173 125.331L231.958 138.72L186.045 174.491Z" fill="#E8D20B"/>
<path d="M184.552 173.197L242.119 131.143L246.832 142.462L184.552 173.197Z" fill="black"/>
<path d="M187.883 169.858L139.39 205.1L132.568 193.053L187.883 169.858Z" fill="#E8D20B"/>
<path d="M189.227 171.16L121.073 197.538L117.721 186.374L189.227 171.16Z" fill="black"/>
<circle cx="187.5" cy="170.5" r="3.5" fill="black"/>
</svg>
