<svg width="455" height="198" viewBox="0 0 455 198" fill="none" xmlns="http://www.w3.org/2000/svg">
<path d="M142.3 113.352C145.4 113.352 148.083 113.868 150.35 114.902C152.65 115.935 154.417 117.402 155.65 119.302C156.883 121.202 157.5 123.452 157.5 126.052C157.5 128.618 156.883 130.868 155.65 132.802C154.417 134.702 152.65 136.168 150.35 137.202C148.083 138.202 145.4 138.702 142.3 138.702H135.25V148.352H127.15V113.352H142.3ZM141.85 132.102C144.283 132.102 146.133 131.585 147.4 130.552C148.667 129.485 149.3 127.985 149.3 126.052C149.3 124.085 148.667 122.585 147.4 121.552C146.133 120.485 144.283 119.952 141.85 119.952H135.25V132.102H141.85ZM179.571 121.052C182.904 121.052 185.588 122.052 187.621 124.052C189.688 126.052 190.721 129.018 190.721 132.952V148.352H182.921V134.152C182.921 132.018 182.454 130.435 181.521 129.402C180.588 128.335 179.238 127.802 177.471 127.802C175.504 127.802 173.938 128.418 172.771 129.652C171.604 130.852 171.021 132.652 171.021 135.052V148.352H163.221V111.252H171.021V124.252C172.054 123.218 173.304 122.435 174.771 121.902C176.238 121.335 177.838 121.052 179.571 121.052ZM224.434 135.002C224.434 135.102 224.384 135.802 224.284 137.102H203.934C204.301 138.768 205.168 140.085 206.534 141.052C207.901 142.018 209.601 142.502 211.634 142.502C213.034 142.502 214.268 142.302 215.334 141.902C216.434 141.468 217.451 140.802 218.384 139.902L222.534 144.402C220.001 147.302 216.301 148.752 211.434 148.752C208.401 148.752 205.718 148.168 203.384 147.002C201.051 145.802 199.251 144.152 197.984 142.052C196.718 139.952 196.084 137.568 196.084 134.902C196.084 132.268 196.701 129.902 197.934 127.802C199.201 125.668 200.918 124.018 203.084 122.852C205.284 121.652 207.734 121.052 210.434 121.052C213.068 121.052 215.451 121.618 217.584 122.752C219.718 123.885 221.384 125.518 222.584 127.652C223.818 129.752 224.434 132.202 224.434 135.002ZM210.484 126.952C208.718 126.952 207.234 127.452 206.034 128.452C204.834 129.452 204.101 130.818 203.834 132.552H217.084C216.818 130.852 216.084 129.502 214.884 128.502C213.684 127.468 212.218 126.952 210.484 126.952ZM245.977 121.052C249.311 121.052 251.994 122.052 254.027 124.052C256.094 126.052 257.127 129.018 257.127 132.952V148.352H249.327V134.152C249.327 132.018 248.861 130.435 247.927 129.402C246.994 128.335 245.644 127.802 243.877 127.802C241.911 127.802 240.344 128.418 239.177 129.652C238.011 130.852 237.427 132.652 237.427 135.052V148.352H229.627V121.452H237.077V124.602C238.111 123.468 239.394 122.602 240.927 122.002C242.461 121.368 244.144 121.052 245.977 121.052ZM277.291 148.752C274.457 148.752 271.907 148.168 269.641 147.002C267.407 145.802 265.657 144.152 264.391 142.052C263.124 139.952 262.491 137.568 262.491 134.902C262.491 132.235 263.124 129.852 264.391 127.752C265.657 125.652 267.407 124.018 269.641 122.852C271.907 121.652 274.457 121.052 277.291 121.052C280.124 121.052 282.657 121.652 284.891 122.852C287.124 124.018 288.874 125.652 290.141 127.752C291.407 129.852 292.041 132.235 292.041 134.902C292.041 137.568 291.407 139.952 290.141 142.052C288.874 144.152 287.124 145.802 284.891 147.002C282.657 148.168 280.124 148.752 277.291 148.752ZM277.291 142.352C279.291 142.352 280.924 141.685 282.191 140.352C283.491 138.985 284.141 137.168 284.141 134.902C284.141 132.635 283.491 130.835 282.191 129.502C280.924 128.135 279.291 127.452 277.291 127.452C275.291 127.452 273.641 128.135 272.341 129.502C271.041 130.835 270.391 132.635 270.391 134.902C270.391 137.168 271.041 138.985 272.341 140.352C273.641 141.685 275.291 142.352 277.291 142.352ZM321.454 130.302H328.854V144.502C326.954 145.935 324.754 147.035 322.254 147.802C319.754 148.568 317.238 148.952 314.704 148.952C311.071 148.952 307.804 148.185 304.904 146.652C302.004 145.085 299.721 142.935 298.054 140.202C296.421 137.435 295.604 134.318 295.604 130.852C295.604 127.385 296.421 124.285 298.054 121.552C299.721 118.785 302.021 116.635 304.954 115.102C307.888 113.535 311.188 112.752 314.854 112.752C317.921 112.752 320.704 113.268 323.204 114.302C325.704 115.335 327.804 116.835 329.504 118.802L324.304 123.602C321.804 120.968 318.788 119.652 315.254 119.652C313.021 119.652 311.038 120.118 309.304 121.052C307.571 121.985 306.221 123.302 305.254 125.002C304.288 126.702 303.804 128.652 303.804 130.852C303.804 133.018 304.288 134.952 305.254 136.652C306.221 138.352 307.554 139.685 309.254 140.652C310.988 141.585 312.954 142.052 315.154 142.052C317.488 142.052 319.588 141.552 321.454 140.552V130.302ZM343.279 125.002C344.212 123.702 345.462 122.718 347.029 122.052C348.629 121.385 350.462 121.052 352.529 121.052V128.252C351.662 128.185 351.079 128.152 350.779 128.152C348.545 128.152 346.795 128.785 345.529 130.052C344.262 131.285 343.629 133.152 343.629 135.652V148.352H335.829V121.452H343.279V125.002ZM369.722 148.752C366.889 148.752 364.339 148.168 362.072 147.002C359.839 145.802 358.089 144.152 356.822 142.052C355.556 139.952 354.922 137.568 354.922 134.902C354.922 132.235 355.556 129.852 356.822 127.752C358.089 125.652 359.839 124.018 362.072 122.852C364.339 121.652 366.889 121.052 369.722 121.052C372.556 121.052 375.089 121.652 377.322 122.852C379.556 124.018 381.306 125.652 382.572 127.752C383.839 129.852 384.472 132.235 384.472 134.902C384.472 137.568 383.839 139.952 382.572 142.052C381.306 144.152 379.556 145.802 377.322 147.002C375.089 148.168 372.556 148.752 369.722 148.752ZM369.722 142.352C371.722 142.352 373.356 141.685 374.622 140.352C375.922 138.985 376.572 137.168 376.572 134.902C376.572 132.635 375.922 130.835 374.622 129.502C373.356 128.135 371.722 127.452 369.722 127.452C367.722 127.452 366.072 128.135 364.772 129.502C363.472 130.835 362.822 132.635 362.822 134.902C362.822 137.168 363.472 138.985 364.772 140.352C366.072 141.685 367.722 142.352 369.722 142.352ZM416.786 121.452V148.352H409.386V145.152C408.353 146.318 407.119 147.218 405.686 147.852C404.253 148.452 402.703 148.752 401.036 148.752C397.503 148.752 394.703 147.735 392.636 145.702C390.569 143.668 389.536 140.652 389.536 136.652V121.452H397.336V135.502C397.336 139.835 399.153 142.002 402.786 142.002C404.653 142.002 406.153 141.402 407.286 140.202C408.419 138.968 408.986 137.152 408.986 134.752V121.452H416.786ZM439.912 121.052C442.412 121.052 444.679 121.635 446.712 122.802C448.779 123.935 450.395 125.552 451.562 127.652C452.729 129.718 453.312 132.135 453.312 134.902C453.312 137.668 452.729 140.102 451.562 142.202C450.395 144.268 448.779 145.885 446.712 147.052C444.679 148.185 442.412 148.752 439.912 148.752C436.479 148.752 433.779 147.668 431.812 145.502V158.052H424.012V121.452H431.462V124.552C433.395 122.218 436.212 121.052 439.912 121.052ZM438.562 142.352C440.562 142.352 442.195 141.685 443.462 140.352C444.762 138.985 445.412 137.168 445.412 134.902C445.412 132.635 444.762 130.835 443.462 129.502C442.195 128.135 440.562 127.452 438.562 127.452C436.562 127.452 434.912 128.135 433.612 129.502C432.345 130.835 431.712 132.635 431.712 134.902C431.712 137.168 432.345 138.985 433.612 140.352C434.912 141.685 436.562 142.352 438.562 142.352Z" fill="white"/>
<path d="M136.82 177.712C133.82 177.712 131.48 176.882 129.8 175.222C128.14 173.562 127.31 171.192 127.31 168.112V156.352H132.17V167.932C132.17 171.692 133.73 173.572 136.85 173.572C138.37 173.572 139.53 173.122 140.33 172.222C141.13 171.302 141.53 169.872 141.53 167.932V156.352H146.33V168.112C146.33 171.192 145.49 173.562 143.81 175.222C142.15 176.882 139.82 177.712 136.82 177.712ZM160.613 160.972C162.613 160.972 164.223 161.572 165.443 162.772C166.683 163.972 167.303 165.752 167.303 168.112V177.352H162.623V168.832C162.623 167.552 162.343 166.602 161.783 165.982C161.223 165.342 160.413 165.022 159.353 165.022C158.173 165.022 157.233 165.392 156.533 166.132C155.833 166.852 155.483 167.932 155.483 169.372V177.352H150.803V161.212H155.273V163.102C155.893 162.422 156.663 161.902 157.583 161.542C158.503 161.162 159.513 160.972 160.613 160.972ZM171.545 161.212H176.225V177.352H171.545V161.212ZM173.885 158.962C173.025 158.962 172.325 158.712 171.785 158.212C171.245 157.712 170.975 157.092 170.975 156.352C170.975 155.612 171.245 154.992 171.785 154.492C172.325 153.992 173.025 153.742 173.885 153.742C174.745 153.742 175.445 153.982 175.985 154.462C176.525 154.942 176.795 155.542 176.795 156.262C176.795 157.042 176.525 157.692 175.985 158.212C175.445 158.712 174.745 158.962 173.885 158.962ZM187.078 160.972C189.578 160.972 191.498 161.572 192.838 162.772C194.178 163.952 194.848 165.742 194.848 168.142V177.352H190.468V175.342C189.588 176.842 187.948 177.592 185.548 177.592C184.308 177.592 183.228 177.382 182.308 176.962C181.408 176.542 180.718 175.962 180.238 175.222C179.758 174.482 179.518 173.642 179.518 172.702C179.518 171.202 180.078 170.022 181.198 169.162C182.338 168.302 184.088 167.872 186.448 167.872H190.168C190.168 166.852 189.858 166.072 189.238 165.532C188.618 164.972 187.688 164.692 186.448 164.692C185.588 164.692 184.738 164.832 183.898 165.112C183.078 165.372 182.378 165.732 181.798 166.192L180.118 162.922C180.998 162.302 182.048 161.822 183.268 161.482C184.508 161.142 185.778 160.972 187.078 160.972ZM186.718 174.442C187.518 174.442 188.228 174.262 188.848 173.902C189.468 173.522 189.908 172.972 190.168 172.252V170.602H186.958C185.038 170.602 184.078 171.232 184.078 172.492C184.078 173.092 184.308 173.572 184.768 173.932C185.248 174.272 185.898 174.442 186.718 174.442ZM208.894 160.972C210.894 160.972 212.504 161.572 213.724 162.772C214.964 163.972 215.584 165.752 215.584 168.112V177.352H210.904V168.832C210.904 167.552 210.624 166.602 210.064 165.982C209.504 165.342 208.694 165.022 207.634 165.022C206.454 165.022 205.514 165.392 204.814 166.132C204.114 166.852 203.764 167.932 203.764 169.372V177.352H199.084V161.212H203.554V163.102C204.174 162.422 204.944 161.902 205.864 161.542C206.784 161.162 207.794 160.972 208.894 160.972ZM236.442 155.092V177.352H231.972V175.492C230.812 176.892 229.132 177.592 226.932 177.592C225.412 177.592 224.032 177.252 222.792 176.572C221.572 175.892 220.612 174.922 219.912 173.662C219.212 172.402 218.862 170.942 218.862 169.282C218.862 167.622 219.212 166.162 219.912 164.902C220.612 163.642 221.572 162.672 222.792 161.992C224.032 161.312 225.412 160.972 226.932 160.972C228.992 160.972 230.602 161.622 231.762 162.922V155.092H236.442ZM227.742 173.752C228.922 173.752 229.902 173.352 230.682 172.552C231.462 171.732 231.852 170.642 231.852 169.282C231.852 167.922 231.462 166.842 230.682 166.042C229.902 165.222 228.922 164.812 227.742 164.812C226.542 164.812 225.552 165.222 224.772 166.042C223.992 166.842 223.602 167.922 223.602 169.282C223.602 170.642 223.992 171.732 224.772 172.552C225.552 173.352 226.542 173.752 227.742 173.752ZM256.583 169.342C256.583 169.402 256.553 169.822 256.493 170.602H244.283C244.503 171.602 245.023 172.392 245.843 172.972C246.663 173.552 247.683 173.842 248.903 173.842C249.743 173.842 250.483 173.722 251.123 173.482C251.783 173.222 252.393 172.822 252.953 172.282L255.443 174.982C253.923 176.722 251.703 177.592 248.783 177.592C246.963 177.592 245.353 177.242 243.953 176.542C242.553 175.822 241.473 174.832 240.713 173.572C239.953 172.312 239.573 170.882 239.573 169.282C239.573 167.702 239.943 166.282 240.683 165.022C241.443 163.742 242.473 162.752 243.773 162.052C245.093 161.332 246.563 160.972 248.183 160.972C249.763 160.972 251.193 161.312 252.473 161.992C253.753 162.672 254.753 163.652 255.473 164.932C256.213 166.192 256.583 167.662 256.583 169.342ZM248.213 164.512C247.153 164.512 246.263 164.812 245.543 165.412C244.823 166.012 244.383 166.832 244.223 167.872H252.173C252.013 166.852 251.573 166.042 250.853 165.442C250.133 164.822 249.253 164.512 248.213 164.512ZM265.129 177.592C263.789 177.592 262.479 177.432 261.199 177.112C259.919 176.772 258.899 176.352 258.139 175.852L259.699 172.492C260.419 172.952 261.289 173.332 262.309 173.632C263.329 173.912 264.329 174.052 265.309 174.052C267.289 174.052 268.279 173.562 268.279 172.582C268.279 172.122 268.009 171.792 267.469 171.592C266.929 171.392 266.099 171.222 264.979 171.082C263.659 170.882 262.569 170.652 261.709 170.392C260.849 170.132 260.099 169.672 259.459 169.012C258.839 168.352 258.529 167.412 258.529 166.192C258.529 165.172 258.819 164.272 259.399 163.492C259.999 162.692 260.859 162.072 261.979 161.632C263.119 161.192 264.459 160.972 265.999 160.972C267.139 160.972 268.269 161.102 269.389 161.362C270.529 161.602 271.469 161.942 272.209 162.382L270.649 165.712C269.229 164.912 267.679 164.512 265.999 164.512C264.999 164.512 264.249 164.652 263.749 164.932C263.249 165.212 262.999 165.572 262.999 166.012C262.999 166.512 263.269 166.862 263.809 167.062C264.349 167.262 265.209 167.452 266.389 167.632C267.709 167.852 268.789 168.092 269.629 168.352C270.469 168.592 271.199 169.042 271.819 169.702C272.439 170.362 272.749 171.282 272.749 172.462C272.749 173.462 272.449 174.352 271.849 175.132C271.249 175.912 270.369 176.522 269.209 176.962C268.069 177.382 266.709 177.592 265.129 177.592Z" fill="white"/>
<path d="M120.254 112.074L29.6318 91.6172L36.0754 72.7696L120.254 112.074Z" fill="white"/>
<path d="M118.119 111.33L98.0323 176.163L80.0769 167.54L118.119 111.33Z" fill="white"/>
<path d="M119.642 111.55L107.711 28.3271L127.624 27.8559L119.642 111.55Z" fill="white"/>
<path d="M119.237 111.902L65.0409 63.5287L76.5097 54.9943L119.237 111.902Z" fill="white"/>
<path d="M119.369 114.351L68.3459 43.6634L83.8655 36.4426L119.369 114.351Z" fill="white"/>
<path d="M117.045 114.843L153.173 65.6824L162.958 79.0721L117.045 114.843Z" fill="white"/>
<path d="M115.552 113.548L173.119 71.4942L177.832 82.8137L115.552 113.548Z" fill="white"/>
<path d="M118.883 110.21L70.3895 145.451L63.568 133.404L118.883 110.21Z" fill="white"/>
<path d="M120.227 111.512L52.0728 137.89L48.7211 126.725L120.227 111.512Z" fill="white"/>
</svg>
